<svg width="100%" height="100%" viewBox="0 0 878 560" version="1.1" xmlns="http://www.w3.org/2000/svg" xmlns:xlink="http://www.w3.org/1999/xlink" xml:space="preserve" xmlns:serif="http://www.serif.com/" style="fill-rule:evenodd;clip-rule:evenodd;stroke-linejoin:round;stroke-miterlimit:2;">
    <g transform="matrix(1,0,0,1,-73.3014,2.84217e-14)">
        <g transform="matrix(9.58904,0,0,9.58904,32.0685,-199.452)">
            <g>
                <path d="M30,46.7C29.3,45 29.3,45 28.6,43.2L25.9,43.3C25.7,43.1 25.5,42.9 25.3,42.7L36.4,31.6L36.2,32.7C37,33.1 37,33.1 37.9,33.6L38.9,32.7C39.5,32.8 39.8,32.8 40.4,32.8L41.2,33.9C42.1,33.6 42.1,33.6 43,33.3L43,32.5L54.3,42.8L52.8,42.6C52.2,43.7 52.2,43.7 51.7,44.7L52.8,45.9C52.7,46.6 52.7,47 52.6,47.8L51.3,48.8C51.7,49.9 51.7,49.9 52,51.1L53.7,51.2C54.2,51.8 54.4,52.1 54.9,52.6L54.7,54.3C55.8,54.9 55.8,54.9 56.8,55.4L58,54.3C58.7,54.4 59.1,54.4 59.9,54.5L60.9,55.8C62,55.4 62,55.4 63.2,55.1L63.3,53.4C63.9,52.9 64.2,52.7 64.7,52.2L66.4,52.4C67,51.3 67,51.3 67.5,50.3L66.4,49.1C66.5,48.4 66.5,48 66.6,47.2L67.9,46.2C67.5,45.1 67.5,45.1 67.2,43.9L65.5,43.8C65,43.2 64.8,42.9 64.3,42.4L64.5,40.7C63.4,40.1 63.4,40.1 62.4,39.6L61.2,40.7C60.5,40.6 60.1,40.6 59.3,40.5L58.3,39.2C57.2,39.6 57.2,39.6 56,39.9L55.9,41.5L44.4,31.1L45.5,31.3C45.9,30.5 45.9,30.5 46.4,29.6L45.5,28.6C45.6,28 45.6,27.7 45.6,27.1L46.7,26.3C46.4,25.4 46.4,25.4 46.1,24.5L44.8,24.5C44.4,24 44.2,23.8 43.8,23.4L44,22C43.2,21.6 43.2,21.6 42.3,21.1L41.3,22C40.7,21.9 40.4,21.9 39.8,21.9L39,20.8C38.1,21.1 38.1,21.1 37.2,21.4L37.2,22.7C36.7,23.1 36.5,23.3 36.1,23.7L34.8,23.5C34.4,24.3 34.4,24.3 33.9,25.2L34.8,26.2C34.7,26.8 34.7,27.1 34.7,27.7L33.6,28.5C33.9,29.4 33.9,29.4 34.2,30.3L35,30.3L23.9,41.3L23.8,41.2L23.9,38.5C22.2,37.8 22.2,37.8 20.4,37.1L18.6,39.1L15.6,39.1L13.8,37.1C12.1,37.8 12.1,37.8 10.3,38.5L10.4,41.2C9.6,42 9.1,42.5 8.3,43.3L5.6,43.2C5,44.9 5,44.9 4.3,46.7L6.3,48.5L6.3,51.5L4.3,53.3C5,55 5,55 5.8,56.7L8.5,56.6C9.3,57.4 9.8,57.9 10.6,58.7L10.5,61.4C12.2,62.1 12.2,62.1 14,62.8L15.8,60.8L18.8,60.8L20.6,62.8C22.3,62.1 22.3,62.1 24.1,61.4L24,58.7C24.8,57.9 25.3,57.4 26.1,56.6L28.8,56.7C29.5,55 29.5,55 30.2,53.2L28.2,51.4L28.2,48.4L30,46.7ZM60,42.8C62.7,43 64.6,45.4 64.4,48C64.2,50.7 61.8,52.6 59.2,52.4C56.5,52.2 54.6,49.8 54.8,47.2C55,44.5 57.4,42.5 60,42.8ZM17.2,57.6C13,57.6 9.6,54.2 9.6,50C9.6,45.8 13,42.4 17.2,42.4C21.4,42.4 24.8,45.8 24.8,50C24.8,54.2 21.4,57.6 17.2,57.6Z" style="fill-rule:nonzero;"/>
                <path d="M93.7,48.6L95.7,46.8C95,45 95,45 94.2,43.3L91.5,43.4C90.7,42.6 90.2,42.1 89.4,41.3L89.5,38.6C87.8,37.9 87.8,37.9 86,37.2L84.2,39.2L81.2,39.2L79.4,37.2C77.7,37.9 77.7,37.9 75.9,38.6L76,41.3C75.2,42.1 74.7,42.6 73.9,43.4L71.2,43.3C70.7,45 70.7,45 70,46.8L72,48.6L72,51.6L70,53.4C70.7,55.1 70.7,55.1 71.4,56.9L74.1,56.8C74.3,57 74.5,57.2 74.7,57.4L63.6,68.4L63.8,67.3C63,66.9 63,66.9 62.1,66.4L61.1,67.3C60.5,67.2 60.2,67.2 59.6,67.2L58.8,66.1C57.9,66.4 57.9,66.4 57,66.7L57,67.5L45.7,57.1L47.2,57.3C47.8,56.2 47.8,56.2 48.3,55.2L47.2,54C47.3,53.3 47.3,52.9 47.4,52.1L48.7,51.1C48.3,50 48.3,50 48,48.8L46.3,48.7C45.8,48.1 45.6,47.8 45.1,47.3L45.3,45.6C44.2,45 44.2,45 43.2,44.5L42,45.6C41.3,45.5 40.9,45.5 40.1,45.4L39.1,44.1C38,44.5 38,44.5 36.8,44.8L36.7,46.5C36.1,47 35.8,47.2 35.3,47.7L33.6,47.5C33,48.6 33,48.6 32.5,49.6L33.6,50.8C33.5,51.5 33.5,51.9 33.4,52.7L32.1,53.7C32.5,54.8 32.5,54.8 32.8,56L34.5,56.1C35,56.7 35.2,57 35.7,57.5L35.5,59.2C36.6,59.8 36.6,59.8 37.6,60.3L38.8,59.2C39.5,59.3 39.9,59.3 40.7,59.4L41.7,60.7C42.8,60.3 42.8,60.3 44,60L44.1,58.4L55.7,69L54.6,68.8C54.2,69.6 54.2,69.6 53.7,70.5L54.6,71.5C54.5,72.1 54.5,72.4 54.5,73L53.4,73.8C53.7,74.7 53.7,74.7 54,75.6L55.3,75.6C55.7,76.1 55.9,76.3 56.3,76.7L56,78C56.8,78.4 56.8,78.4 57.7,78.9L58.7,78C59.3,78.1 59.6,78.1 60.2,78.1L61,79.2C61.9,78.9 61.9,78.9 62.8,78.6L62.8,77.3C63.3,76.9 63.5,76.7 63.9,76.3L65.2,76.5C65.6,75.7 65.6,75.7 66.1,74.8L65.2,73.8C65.3,73.2 65.3,72.9 65.3,72.3L66.4,71.5C66.1,70.6 66.1,70.6 65.8,69.7L65,69.7L76.1,58.6L76.2,58.7L76.1,61.4C77.8,62.1 77.8,62.1 79.6,62.8L81.4,60.8L84.4,60.8L86.2,62.8C87.9,62.1 87.9,62.1 89.7,61.4L89.6,58.7C90.4,57.9 90.9,57.4 91.7,56.6L94.4,56.7C95.1,55 95.1,55 95.8,53.2L93.8,51.4C93.7,50.4 93.7,49.8 93.7,48.6ZM40,57.2C37.3,57 35.4,54.6 35.6,52C35.8,49.3 38.2,47.4 40.8,47.6C43.5,47.8 45.4,50.2 45.2,52.8C45,55.5 42.6,57.5 40,57.2ZM82.8,57.7C78.6,57.7 75.2,54.3 75.2,50.1C75.2,45.9 78.6,42.5 82.8,42.5C87,42.5 90.4,45.9 90.4,50.1C90.4,54.3 87.1,57.7 82.8,57.7Z" style="fill-rule:nonzero;"/>
            </g>
        </g>
    </g>
</svg>